<svg width="21" height="20" viewBox="0 0 21 20" fill="none" xmlns="http://www.w3.org/2000/svg">
<path d="M18.8082 15.2748C18.8082 15.5748 18.7415 15.8832 18.5998 16.1832C18.4582 16.4832 18.2748 16.7665 18.0332 17.0332C17.6248 17.4832 17.1748 17.8082 16.6665 18.0165C16.1665 18.2248 15.6248 18.3332 15.0415 18.3332C14.1915 18.3332 13.2832 18.1332 12.3248 17.7248C11.3665 17.3165 10.4082 16.7665 9.45817 16.0748C8.49984 15.3748 7.5915 14.5998 6.72484 13.7415C5.8665 12.8748 5.0915 11.9665 4.39984 11.0165C3.7165 10.0665 3.1665 9.1165 2.7665 8.17484C2.3665 7.22484 2.1665 6.3165 2.1665 5.44984C2.1665 4.88317 2.2665 4.3415 2.4665 3.8415C2.6665 3.33317 2.98317 2.8665 3.42484 2.44984C3.95817 1.92484 4.5415 1.6665 5.15817 1.6665C5.3915 1.6665 5.62484 1.7165 5.83317 1.8165C6.04984 1.9165 6.2415 2.0665 6.3915 2.28317L8.32484 5.00817C8.47484 5.2165 8.58317 5.40817 8.65817 5.5915C8.73317 5.7665 8.77484 5.9415 8.77484 6.09984C8.77484 6.29984 8.7165 6.49984 8.59984 6.6915C8.4915 6.88317 8.33317 7.08317 8.13317 7.28317L7.49984 7.9415C7.40817 8.03317 7.3665 8.1415 7.3665 8.27484C7.3665 8.3415 7.37484 8.39984 7.3915 8.4665C7.4165 8.53317 7.4415 8.58317 7.45817 8.63317C7.60817 8.90817 7.8665 9.2665 8.23317 9.69984C8.60817 10.1332 9.00817 10.5748 9.4415 11.0165C9.8915 11.4582 10.3248 11.8665 10.7665 12.2415C11.1998 12.6082 11.5582 12.8582 11.8415 13.0082C11.8832 13.0248 11.9332 13.0498 11.9915 13.0748C12.0582 13.0998 12.1248 13.1082 12.1998 13.1082C12.3415 13.1082 12.4498 13.0582 12.5415 12.9665L13.1748 12.3415C13.3832 12.1332 13.5832 11.9748 13.7748 11.8748C13.9665 11.7582 14.1582 11.6998 14.3665 11.6998C14.5248 11.6998 14.6915 11.7332 14.8748 11.8082C15.0582 11.8832 15.2498 11.9915 15.4582 12.1332L18.2165 14.0915C18.4332 14.2415 18.5832 14.4165 18.6748 14.6248C18.7582 14.8332 18.8082 15.0415 18.8082 15.2748Z" stroke="#3D3D3D" stroke-width="1.5" stroke-miterlimit="10"/>
<path d="M15.9167 7.49967C15.9167 6.99967 15.525 6.23301 14.9417 5.60801C14.4083 5.03301 13.7 4.58301 13 4.58301" stroke="#3D3D3D" stroke-width="1.5" stroke-linecap="round" stroke-linejoin="round"/>
<path d="M18.8333 7.49984C18.8333 4.27484 16.225 1.6665 13 1.6665" stroke="#3D3D3D" stroke-width="1.5" stroke-linecap="round" stroke-linejoin="round"/>
</svg>
