<svg width="21" height="20" viewBox="0 0 21 20" fill="none" xmlns="http://www.w3.org/2000/svg">
<path d="M2.1665 8.3335H18.8332" stroke="#3D3D3D" stroke-width="1.5" stroke-miterlimit="10" stroke-linecap="round" stroke-linejoin="round"/>
<path d="M10.1234 17.0831H5.86508C2.90675 17.0831 2.15674 16.3498 2.15674 13.4248V6.57481C2.15674 3.92481 2.77343 3.07481 5.09843 2.94147C5.33176 2.93314 5.59008 2.9248 5.86508 2.9248H15.1234C18.0817 2.9248 18.8317 3.65814 18.8317 6.58314V10.2581" stroke="#3D3D3D" stroke-width="1.5" stroke-linecap="round" stroke-linejoin="round"/>
<path d="M5.5 13.3335H8.83333" stroke="#3D3D3D" stroke-width="1.5" stroke-miterlimit="10" stroke-linecap="round" stroke-linejoin="round"/>
<path d="M18.8332 14.9998C18.8332 15.6248 18.6582 16.2165 18.3498 16.7165C17.7748 17.6832 16.7165 18.3332 15.4998 18.3332C14.2832 18.3332 13.2249 17.6832 12.6499 16.7165C12.3415 16.2165 12.1665 15.6248 12.1665 14.9998C12.1665 13.1582 13.6582 11.6665 15.4998 11.6665C17.3415 11.6665 18.8332 13.1582 18.8332 14.9998Z" stroke="#3D3D3D" stroke-width="1.5" stroke-miterlimit="10" stroke-linecap="round" stroke-linejoin="round"/>
<path d="M14.2012 14.9998L15.0262 15.8248L16.8012 14.1831" stroke="#3D3D3D" stroke-width="1.5" stroke-linecap="round" stroke-linejoin="round"/>
</svg>
