<svg width="21" height="20" viewBox="0 0 21 20" fill="none" xmlns="http://www.w3.org/2000/svg">
<path d="M17.1665 4.99984V6.49149C16.9582 6.46649 16.7165 6.44983 16.4582 6.44983H12.8915C11.1082 6.44983 10.5165 7.04153 10.5165 8.82486V13.0832H5.49984C2.83317 13.0832 2.1665 12.4165 2.1665 9.74985V4.99984C2.1665 2.33317 2.83317 1.6665 5.49984 1.6665H13.8332C16.4998 1.6665 17.1665 2.33317 17.1665 4.99984Z" stroke="#3D3D3D" stroke-width="1.5" stroke-linecap="round" stroke-linejoin="round"/>
<path d="M8 13.0835V16.6668" stroke="#3D3D3D" stroke-width="1.5" stroke-linecap="round" stroke-linejoin="round"/>
<path d="M2.1665 9.9165H10.4998" stroke="#3D3D3D" stroke-width="1.5" stroke-linecap="round" stroke-linejoin="round"/>
<path d="M5.4585 16.6665H10.5002" stroke="#3D3D3D" stroke-width="1.5" stroke-linecap="round" stroke-linejoin="round"/>
<path d="M16.4417 6.4502C16.7 6.4502 16.9417 6.46685 17.15 6.49185C18.3833 6.65019 18.8167 7.30023 18.8167 8.82523V15.9586C18.8167 17.7419 18.225 18.3335 16.4417 18.3335H12.875C11.0917 18.3335 10.5 17.7419 10.5 15.9586V8.82523C10.5 7.04189 11.0917 6.4502 12.875 6.4502H16.4417Z" stroke="#3D3D3D" stroke-width="1.5" stroke-miterlimit="10" stroke-linecap="round" stroke-linejoin="round"/>
<path d="M15.43 8.3335H13.917" stroke="#3D3D3D" stroke-width="1.5" stroke-linecap="round" stroke-linejoin="round"/>
</svg>
