<svg width="32" height="32" viewBox="0 0 32 32" fill="none" xmlns="http://www.w3.org/2000/svg">
<path d="M0 16C0 7.16344 7.16344 0 16 0C24.8366 0 32 7.16344 32 16C32 24.8366 24.8366 32 16 32C7.16344 32 0 24.8366 0 16Z" fill="#FFF3F6"/>
<path d="M16 11.75C14.11 11.75 13.75 12.54 13.75 14V14.62H18.25V14C18.25 12.54 17.89 11.75 16 11.75Z" fill="#FF2156"/>
<path d="M15.9999 19.0999C16.6074 19.0999 17.0999 18.6074 17.0999 17.9999C17.0999 17.3924 16.6074 16.8999 15.9999 16.8999C15.3924 16.8999 14.8999 17.3924 14.8999 17.9999C14.8999 18.6074 15.3924 19.0999 15.9999 19.0999Z" fill="#FF2156"/>
<path d="M16 6C10.48 6 6 10.48 6 16C6 21.52 10.48 26 16 26C21.52 26 26 21.52 26 16C26 10.48 21.52 6 16 6ZM21.38 18.5C21.38 20.7 20.7 21.38 18.5 21.38H13.5C11.3 21.38 10.62 20.7 10.62 18.5V17.5C10.62 15.79 11.03 15 12.25 14.73V14C12.25 13.07 12.25 10.25 16 10.25C19.75 10.25 19.75 13.07 19.75 14V14.73C20.97 15 21.38 15.79 21.38 17.5V18.5Z" fill="#FF2156"/>
</svg>
