<svg width="32" height="32" viewBox="0 0 32 32" fill="none" xmlns="http://www.w3.org/2000/svg">
<path d="M0 16C0 7.16344 7.16344 0 16 0C24.8366 0 32 7.16344 32 16C32 24.8366 24.8366 32 16 32C7.16344 32 0 24.8366 0 16Z" fill="#F0F3FE"/>
<path d="M22.5002 8.10982L17.5102 6.23982C16.6802 5.92982 15.3202 5.92982 14.4902 6.23982L9.50016 8.10982C8.35016 8.53982 7.41016 9.89982 7.41016 11.1198V18.5498C7.41016 19.7298 8.19016 21.2798 9.14016 21.9898L13.4402 25.1998C14.8502 26.2598 17.1702 26.2598 18.5802 25.1998L22.8802 21.9898C23.8302 21.2798 24.6102 19.7298 24.6102 18.5498V11.1198C24.5902 9.89982 23.6502 8.53982 22.5002 8.10982ZM15.9302 11.0298C17.1102 11.0298 18.0702 11.9898 18.0702 13.1698C18.0702 14.3298 17.1602 15.2598 16.0102 15.2998H15.9902H15.9702C15.9502 15.2998 15.9302 15.2998 15.9102 15.2998C14.7102 15.2598 13.8102 14.3298 13.8102 13.1698C13.8002 11.9898 14.7602 11.0298 15.9302 11.0298ZM18.1902 20.3598C17.5802 20.7598 16.7902 20.9698 16.0002 20.9698C15.2102 20.9698 14.4102 20.7698 13.8102 20.3598C13.2402 19.9798 12.9302 19.4598 12.9202 18.8898C12.9202 18.3298 13.2402 17.7898 13.8102 17.4098C15.0202 16.6098 16.9902 16.6098 18.2002 17.4098C18.7702 17.7898 19.0902 18.3098 19.0902 18.8798C19.0802 19.4398 18.7602 19.9798 18.1902 20.3598Z" fill="#4564ED"/>
</svg>
