<svg width="32" height="32" viewBox="0 0 32 32" fill="none" xmlns="http://www.w3.org/2000/svg">
<path d="M0 16C0 7.16344 7.16344 0 16 0C24.8366 0 32 7.16344 32 16C32 24.8366 24.8366 32 16 32C7.16344 32 0 24.8366 0 16Z" fill="#F1FDF6"/>
<path d="M22.5398 8.11984L17.0398 6.05984C16.4698 5.84984 15.5398 5.84984 14.9698 6.05984L9.4698 8.11984C8.4098 8.51984 7.5498 9.75984 7.5498 10.8898V18.9898C7.5498 19.7998 8.0798 20.8698 8.7298 21.3498L14.2298 25.4598C15.1998 26.1898 16.7898 26.1898 17.7598 25.4598L23.2598 21.3498C23.9098 20.8598 24.4398 19.7998 24.4398 18.9898V10.8898C24.4498 9.75984 23.5898 8.51984 22.5398 8.11984ZM19.4798 13.7198L15.1798 18.0198C15.0298 18.1698 14.8398 18.2398 14.6498 18.2398C14.4598 18.2398 14.2698 18.1698 14.1198 18.0198L12.5198 16.3998C12.2298 16.1098 12.2298 15.6298 12.5198 15.3398C12.8098 15.0498 13.2898 15.0498 13.5798 15.3398L14.6598 16.4198L18.4298 12.6498C18.7198 12.3598 19.1998 12.3598 19.4898 12.6498C19.7798 12.9398 19.7798 13.4298 19.4798 13.7198Z" fill="#17BA58"/>
</svg>
