<svg width="34" height="42" viewBox="0 0 34 42" fill="none" xmlns="http://www.w3.org/2000/svg">
<path d="M7.00977 33.0903H27.0098L27.0098 9.09033L7.00977 9.09033L7.00977 33.0903Z" fill="#F1FDF6"/>
<path d="M30.0899 5.33002L19.0899 1.21002C17.9499 0.79002 16.0899 0.79002 14.9499 1.21002L3.94986 5.33002C1.82986 6.13002 0.109863 8.61002 0.109863 10.87V27.07C0.109863 28.69 1.16986 30.83 2.46986 31.79L13.4699 40.01C15.4099 41.47 18.5899 41.47 20.5299 40.01L31.5299 31.79C32.8299 30.81 33.8899 28.69 33.8899 27.07V10.87C33.9099 8.61002 32.1899 6.13002 30.0899 5.33002ZM23.9699 16.53L15.3699 25.13C15.0699 25.43 14.6899 25.57 14.3099 25.57C13.9299 25.57 13.5499 25.43 13.2499 25.13L10.0499 21.89C9.46986 21.31 9.46986 20.35 10.0499 19.77C10.6299 19.19 11.5899 19.19 12.1699 19.77L14.3299 21.93L21.8699 14.39C22.4499 13.81 23.4099 13.81 23.9899 14.39C24.5699 14.97 24.5699 15.95 23.9699 16.53Z" fill="#17BA58"/>
</svg>
