<svg width="121" height="30" viewBox="0 0 121 30" fill="none" xmlns="http://www.w3.org/2000/svg">
<g clip-path="url(#clip0_153_277)">
<path d="M34.9167 16.8562V21.9295C34.9167 22.735 34.721 22.9311 33.9175 22.9311H33.635C32.8314 22.9311 32.6357 22.735 32.6357 21.9295V11.2595C32.6357 9.51735 33.3744 8.77686 35.1124 8.77686H40.956C41.7375 8.77686 41.9332 8.973 41.9332 9.75647V9.95261C41.9332 10.7361 41.7375 10.9322 40.956 10.9322H35.7642C35.1992 10.9322 34.9167 11.2154 34.9167 11.7598V14.6997H40.0865C40.868 14.6997 41.0637 14.8959 41.0637 15.6793V15.8755C41.0637 16.6589 40.868 16.8551 40.0865 16.8551H34.9167V16.8562Z" fill="#FF6500"/>
<path d="M50.8613 15.8323C50.8613 16.5078 50.6656 16.6598 50.0358 16.6598H44.1273C43.4974 16.6598 43.3018 16.5078 43.3018 15.8323V15.5932C43.3018 14.9618 43.4974 14.7656 44.1273 14.7656H50.0358C50.6656 14.7656 50.8613 14.9618 50.8613 15.5932V15.8323Z" fill="#FF6500"/>
<path d="M50.9912 20.9925C50.9912 20.23 51.2089 20.0129 51.8816 20.2521C52.9896 20.6003 54.1626 20.7744 55.4003 20.7744C57.3768 20.7744 58.2023 20.3821 58.2023 19.2504C58.2023 18.8151 58.0715 18.4669 57.811 18.2047C57.5504 17.9215 57.0503 17.5733 56.3336 17.138L53.3359 15.3308C51.8805 14.4603 51.1638 13.2835 51.1638 11.7815C51.1638 9.45205 52.6841 8.34131 55.9642 8.34131C57.1151 8.34131 58.1144 8.49338 58.9839 8.77657C59.7445 9.01569 59.9182 9.16886 59.9182 9.86528V10.2355C59.9182 10.9981 59.7665 11.1501 59.0498 10.954C58.1374 10.6487 57.1162 10.4967 55.9653 10.4967C54.2274 10.4967 53.5107 10.8669 53.5107 11.8465C53.5107 12.565 53.8581 12.9352 54.8793 13.5446L57.9638 15.4388C59.7017 16.4846 60.5492 17.4201 60.5492 19.2493C60.5492 21.7099 58.9201 22.9297 55.3574 22.9297C54.0328 22.9297 52.8599 22.7556 51.8607 22.4284C51.144 22.1892 50.9923 22.0581 50.9923 21.3397V20.9914L50.9912 20.9925Z" fill="#FF6500"/>
<path d="M71.1491 19.4469C71.1491 21.8634 69.7377 22.9312 66.5224 22.9312C63.5896 22.9312 62.1133 21.8205 62.1133 19.578C62.1133 17.3356 63.6775 16.2899 66.5444 16.2899H68.9341V15.2232C68.9341 13.9384 68.0866 13.5681 66.3707 13.5681C65.5023 13.5681 64.7416 13.6331 64.0897 13.7643C63.4599 13.8733 63.2862 13.7422 63.2862 13.0678V12.7626C63.2862 12.1312 63.4599 11.9351 64.0678 11.826C64.7416 11.7169 65.4583 11.6519 66.2399 11.6519C69.3892 11.6519 71.1491 12.6315 71.1491 15.2232V19.448V19.4469ZM68.9341 17.9879H66.5444C65.045 17.9879 64.3503 18.4232 64.3503 19.5339C64.3503 20.6447 65.1758 21.0359 66.4795 21.0359C68.1086 21.0359 68.9341 20.7097 68.9341 19.3378V17.9879Z" fill="#FF6500"/>
<path d="M72.4092 13.2407C72.4092 12.6313 72.5609 12.4572 73.1479 12.3481L74.2988 12.1299V10.8671C74.2988 8.10126 75.7542 7.09961 78.2088 7.09961C78.7738 7.09961 79.23 7.14369 79.5994 7.2087C80.3601 7.36077 80.5337 7.53487 80.5337 8.25333V8.51449C80.5337 8.88473 80.4689 9.12385 80.3381 9.23294C80.0995 9.42909 79.252 9.2109 78.3616 9.2109C77.1239 9.2109 76.5149 9.71118 76.5149 10.6919V12.1288H79.4037C80.1644 12.1288 80.3161 12.2809 80.3161 13.0434V13.3046C80.3161 14.0671 80.1644 14.2192 79.4037 14.2192H76.5149V21.9492C76.5149 22.7327 76.3192 22.9288 75.5376 22.9288H75.2771C74.4956 22.9288 74.2999 22.7327 74.2999 21.9492V14.2192H73.1699C72.562 14.2192 72.4092 14.0671 72.4092 13.4566V13.2385V13.2407Z" fill="#FF6500"/>
<path d="M90.9594 17.1173C90.8725 17.9228 90.6549 18.1189 89.8513 18.1189H83.8132V18.5983C83.8132 20.1884 84.7255 20.8198 86.9196 20.8198C87.81 20.8198 88.7444 20.7107 89.7436 20.4716C90.4383 20.2975 90.634 20.4716 90.634 21.2341V21.5173C90.634 22.2358 90.5032 22.3878 89.7436 22.584C88.8752 22.8231 87.9408 22.9322 86.9196 22.9322C83.2701 22.9322 81.5762 21.5603 81.5762 18.2721V16.3779C81.5762 13.2209 83.1833 11.6528 86.3986 11.6528C89.4182 11.6528 91.0033 13.1988 91.0033 16.1597C91.0033 16.4859 90.9814 16.7911 90.9594 17.1173ZM83.8121 16.2897H88.895V15.7454C88.895 14.3085 88.0475 13.59 86.3315 13.59C84.6156 13.59 83.8121 14.3085 83.8121 15.7454V16.2897Z" fill="#FF6500"/>
<path d="M106.837 15.7452C106.837 14.9617 107.033 14.7656 107.814 14.7656H108.01C108.792 14.7656 108.987 14.9617 108.987 15.7452V19.7297C108.987 21.646 108.466 22.4956 106.75 22.7788C106.143 22.8879 105.534 22.9308 104.904 22.9308C100.364 22.9308 98.4521 21.3408 98.4521 17.4003V13.916C98.4521 10.4107 100.451 8.34131 104.795 8.34131C105.925 8.34131 106.967 8.51541 107.901 8.86362C108.662 9.14682 108.749 9.25591 108.749 9.97437V10.3005C108.749 11.0631 108.575 11.2581 107.88 11.019C106.903 10.6487 105.882 10.4746 104.818 10.4746C101.885 10.4746 100.799 11.4763 100.799 14.0669V17.5512C100.799 19.6636 101.82 20.7744 104.883 20.7744C105.448 20.7744 105.838 20.7523 106.078 20.7094C106.577 20.6443 106.838 20.2961 106.838 19.7077V15.7452H106.837Z" fill="#FF6500"/>
<path d="M111.052 18.2271V16.3549C111.052 13.3058 112.681 11.6519 116.048 11.6519C119.415 11.6519 121 13.2199 121 16.3549V18.2271C121 21.2541 119.371 22.9301 116.048 22.9301C112.725 22.9301 111.052 21.362 111.052 18.2271ZM118.763 16.3549C118.763 14.5257 118.155 13.7422 116.048 13.7422C113.941 13.7422 113.289 14.5257 113.289 16.3549V18.2271C113.289 20.0342 113.897 20.8188 116.048 20.8188C118.199 20.8188 118.763 20.0563 118.763 18.2271V16.3549Z" fill="#FF6500"/>
<path d="M17.964 7.82039C16.3118 7.67934 14.5508 7.60331 12.7249 7.60331C9.43597 7.60331 6.36136 7.85014 3.74295 8.27769C2.90092 8.41543 2.10506 8.5719 1.36527 8.7449C0.567213 8.93113 0 9.64628 0 10.4782V12.6292C0 12.7196 0.00109925 12.811 0.00329775 12.9014C0.0285805 14.1311 0.225346 15.3388 0.580404 16.4926C0.959646 17.7234 1.51807 18.8926 2.23807 19.9592C2.74923 20.7163 3.34172 21.4215 4.01007 22.0606L12.0181 29.7168C12.4149 30.0959 13.0327 30.0959 13.4295 29.7168L21.4376 22.0606C22.1059 21.4215 22.6984 20.7163 23.2096 19.9592C23.9307 18.8926 24.4891 17.7245 24.8672 16.4926C25.2487 15.254 25.4477 13.9526 25.4477 12.6292V3.79614C25.4477 2.40331 24.4792 1.20661 23.1337 0.934435C20.2383 0.348209 16.6328 0 12.7238 0C8.81489 0 5.20935 0.348209 2.31392 0.934435C0.96844 1.20661 0 2.40331 0 3.79614V5.27714C0 5.28815 0.00989326 5.29587 0.0197865 5.29256C1.11024 4.97631 2.36229 4.70083 3.74185 4.47493C6.36026 4.04738 9.43487 3.80055 12.7238 3.80055C15.6709 3.80055 18.4718 3.97135 20.9055 4.31515C21.3837 4.38237 21.7377 4.7989 21.7355 5.29036L21.7058 12.6898C21.7058 13.7433 21.5255 14.7769 21.1859 15.7488C20.7154 17.0909 19.9382 18.3152 18.9005 19.3135C18.8653 19.3477 18.8313 19.3807 18.795 19.4138L13.047 24.7669C12.8645 24.9366 12.5842 24.9377 12.3995 24.7691L6.93517 19.7554C6.78348 19.6165 6.85822 19.3609 7.05939 19.33C8.91272 19.0501 10.9936 18.865 13.1371 18.7846C14.6442 18.7273 15.949 17.7003 16.3942 16.2358L16.6778 15.3014L16.6613 15.2771C15.3961 15.1978 14.0792 15.1559 12.7238 15.1559C9.80532 15.1559 7.05609 15.3499 4.64433 15.6926C4.41349 15.7256 4.19914 15.5802 4.13098 15.3532C3.87596 14.5003 3.74185 13.6066 3.74185 12.6975V12.4871C3.74185 12.2512 3.91003 12.0507 4.13978 12.0154C6.38555 11.6793 10.4418 11.2959 14.3254 11.2804C15.9182 11.2738 17.3121 10.1906 17.7397 8.63141L17.9629 7.81928L17.964 7.82039Z" fill="#FF6500"/>
</g>
<defs>
<clipPath id="clip0_153_277">
<rect width="121" height="30" fill="white"/>
</clipPath>
</defs>
</svg>
