<svg width="100" height="32" viewBox="0 0 100 32" fill="none" xmlns="http://www.w3.org/2000/svg">
<g clip-path="url(#clip0_153_258)">
<path d="M20.2658 31.9966C18.7076 31.9966 17.149 31.9937 15.5908 32C15.4006 32.001 15.3546 31.9718 15.4021 31.7731C16.7406 26.164 18.0712 20.5535 19.4032 14.9429C20.1532 11.783 20.9268 8.62835 21.6444 5.46155C22.0987 3.45747 23.1735 1.91595 24.9914 0.87496C25.9797 0.309183 27.059 0.0155829 28.2039 0.0112008C31.2622 -0.00145854 34.3205 0.00827945 37.3788 2.1609e-06C37.603 -0.000484738 37.6015 0.0813144 37.5635 0.241504C36.6763 3.96823 35.7906 7.69496 34.9054 11.4222C33.6915 16.5361 32.4741 21.6495 31.2667 26.7649C30.6197 29.5056 28.391 31.5219 25.5128 31.9372C25.1921 31.9834 24.8668 31.999 24.5411 31.9981C23.116 31.9942 21.6909 31.9966 20.2658 31.9966ZM26.9894 10.4591V10.4532C25.6724 10.4532 24.3559 10.4571 23.0389 10.4489C22.8418 10.4474 22.7562 10.4864 22.7077 10.6933C21.8825 14.2184 21.0464 17.7412 20.2128 21.2639C20.1437 21.5565 20.1457 21.5584 20.4615 21.5312C21.7424 21.4202 22.9003 20.4702 23.2186 19.2549C23.3747 18.6594 23.5228 18.061 23.6474 17.4592C23.6904 17.2528 23.774 17.2095 23.9756 17.2104C25.809 17.2187 27.6424 17.2163 29.4763 17.2163C30.1864 17.2163 30.8263 17.0298 31.3392 16.5283C31.7641 16.113 32.0758 15.6241 32.2249 15.0569C32.4331 14.2657 32.6177 13.4686 32.7998 12.6716C32.8559 12.4262 32.8509 12.1705 32.7988 11.9227C32.6157 11.0482 31.8862 10.4679 30.9394 10.462C29.6229 10.4537 28.3059 10.4601 26.9889 10.4601L26.9894 10.4591Z" fill="#F17227"/>
<path d="M38.0638 27.0771C36.5136 27.0771 34.9639 27.0737 33.4142 27.081C33.2211 27.082 33.1811 27.0493 33.2276 26.856C34.0943 23.233 34.9529 19.6085 35.8131 15.9841C36.2714 14.0535 36.7092 12.1186 37.1921 10.1943C37.8936 7.3971 40.1899 5.33509 43.0371 4.97527C43.3173 4.93972 43.602 4.92755 43.8847 4.92706C46.8595 4.92366 49.8342 4.92512 52.8095 4.92512C53.1092 4.92512 53.1107 4.9256 53.0437 5.20946C51.7272 10.7562 50.4492 16.3117 49.0756 21.8454C48.4382 24.4152 46.7369 26.1169 44.0939 26.8672C43.5314 27.0269 42.9495 27.0756 42.364 27.0761C40.931 27.0771 39.4974 27.0761 38.0643 27.0761L38.0638 27.0771ZM43.3253 10.4607C41.9172 10.4607 40.5091 10.4607 39.1011 10.4607C38.9975 10.4607 38.8979 10.4344 38.8649 10.5936C38.5797 11.9535 39.4939 12.8134 40.4621 12.8991C41.053 12.9517 41.6445 12.9137 42.2354 12.9244C42.5472 12.9302 42.5482 12.9258 42.4796 13.2165C41.8436 15.9032 41.2077 18.5899 40.5712 21.2767C40.5056 21.5542 40.5056 21.5557 40.8099 21.5313C42.0958 21.4286 43.2607 20.4708 43.5825 19.2443C43.6915 18.829 43.7856 18.4103 43.8847 17.993C44.271 16.3702 44.6588 14.7478 45.0391 13.124C45.0756 12.9677 45.1406 12.9132 45.3053 12.922C45.5545 12.9356 45.8052 12.9254 46.0548 12.9254C47.0711 12.9254 48.0879 12.9263 49.1042 12.9239C49.1937 12.9239 49.3108 12.9682 49.3393 12.8168C49.4454 12.2559 49.4114 11.7183 49.0626 11.2353C48.6588 10.6759 48.0804 10.4621 47.3999 10.4612C46.0418 10.4602 44.6838 10.4612 43.3253 10.4612V10.4607Z" fill="#17B14B"/>
<path d="M4.94194 27.0773C3.36675 27.0773 1.79155 27.0743 0.216354 27.0807C0.0172023 27.0816 -0.031835 27.0519 0.018203 26.8426C1.10003 22.3125 2.17284 17.7799 3.24916 13.2483C3.50385 12.1767 3.75454 11.104 4.02625 10.0363C4.70426 7.37098 7.03303 5.33915 9.82015 4.97543C10.0999 4.93891 10.3851 4.92723 10.6678 4.92674C13.6516 4.92333 16.6353 4.92674 19.6196 4.9209C19.8358 4.9209 19.9018 4.94086 19.8438 5.18236C18.6429 10.2086 17.453 15.2373 16.2605 20.2655C16.1184 20.8644 15.9618 21.4604 15.8347 22.0622C15.5395 23.4606 14.7764 24.5858 13.6931 25.5124C12.4612 26.566 11.0086 27.0753 9.36781 27.0763C7.89269 27.0773 6.41707 27.0763 4.94194 27.0763V27.0773ZM17.0136 10.456C16.3741 10.456 15.7497 10.4555 15.1247 10.456C12.9826 10.4579 10.8409 10.4462 8.6993 10.4681C7.39081 10.4813 6.10133 11.5043 5.8081 12.7298C5.12408 15.5894 4.45457 18.4523 3.76905 21.3114C3.71551 21.5339 3.78457 21.5471 3.97321 21.5359C5.22966 21.4638 6.45159 20.5051 6.77384 19.3112C6.93846 18.7011 7.08507 18.0862 7.21667 17.4688C7.25771 17.2755 7.33526 17.2268 7.52691 17.2278C8.85192 17.2351 10.1774 17.2419 11.5024 17.2287C12.8349 17.2151 14.0874 16.2569 14.4412 15.0207C14.4952 14.8322 14.4842 14.7655 14.259 14.7723C13.7677 14.7869 13.2758 14.7772 12.7839 14.7767C11.2337 14.7757 9.68355 14.7718 8.13337 14.7772C7.93372 14.7777 7.85016 14.7636 7.91671 14.5308C8.0463 14.0795 8.14838 13.6198 8.24145 13.1597C8.28198 12.9606 8.37155 12.9119 8.57421 12.9124C10.3661 12.9163 12.1584 12.8832 13.9493 12.9109C15.4414 12.9338 16.7739 11.7706 17.0136 10.456Z" fill="#1269B0"/>
<path d="M91.1173 18.462C91.1173 17.53 91.1173 16.5981 91.1173 15.6662C91.1173 15.5639 91.0963 15.4646 91.2414 15.412C92.3117 15.0269 93.4035 14.8896 94.5269 15.1364C94.8626 15.2104 95.1734 15.355 95.4301 15.5834C95.5307 15.673 95.5922 15.6681 95.7018 15.5927C96.5935 14.9826 97.5837 14.8779 98.6095 15.1403C99.4476 15.355 99.9745 16.0503 99.9875 16.9341C100.009 18.4006 99.994 19.8671 99.9995 21.3337C99.9995 21.4617 99.9615 21.5017 99.8304 21.4983C99.5142 21.4905 99.1964 21.4846 98.8807 21.4997C98.6946 21.5085 98.665 21.4379 98.6655 21.2772C98.6715 19.9562 98.6695 18.6358 98.6685 17.3148C98.6685 17.1288 98.6685 16.9423 98.6045 16.7622C98.4614 16.361 98.1592 16.1497 97.7423 16.08C97.2845 16.0041 96.8482 16.0596 96.4433 16.2962C96.2862 16.3878 96.2232 16.5066 96.2242 16.693C96.2322 18.2083 96.2232 19.7235 96.2347 21.2387C96.2362 21.4598 96.1711 21.5143 95.9565 21.5002C95.6743 21.4817 95.3895 21.4841 95.1068 21.5002C94.9242 21.5104 94.8902 21.4457 94.8912 21.2816C94.8977 19.9446 94.8762 18.607 94.9017 17.2705C94.9172 16.4559 94.4423 16.1268 93.7753 16.0591C93.4 16.0211 93.0282 16.0703 92.661 16.1584C92.4998 16.1969 92.4398 16.2709 92.4408 16.4442C92.4493 18.0403 92.4418 19.6368 92.4508 21.2329C92.4518 21.4389 92.4133 21.5202 92.1826 21.5012C91.9014 21.4783 91.6157 21.4846 91.3335 21.4997C91.1528 21.509 91.1128 21.4466 91.1143 21.2811C91.1218 20.3414 91.1178 19.4012 91.1178 18.4615L91.1173 18.462Z" fill="#146AB0"/>
<path d="M84.4658 18.3472C84.4763 17.5467 84.6279 16.8325 85.0413 16.1727C86.029 14.5981 88.8266 14.5684 89.7468 16.365C90.4028 17.6456 90.4108 18.9651 89.7513 20.2437C89.2314 21.2516 88.3182 21.6732 87.1774 21.6206C85.973 21.5651 85.1874 20.9365 84.742 19.8722C84.5314 19.3692 84.4758 18.8395 84.4658 18.3467V18.3472ZM85.7973 18.2873C85.8058 18.7952 85.8559 19.285 86.076 19.7427C86.3267 20.2636 86.7265 20.5733 87.3405 20.5723C87.953 20.5714 88.3768 20.2748 88.5995 19.7402C88.9978 18.784 88.9993 17.8111 88.5975 16.8558C88.3768 16.3314 87.9555 16.0466 87.353 16.0422C86.7511 16.0378 86.3457 16.3217 86.0891 16.8329C85.8569 17.2955 85.8083 17.7936 85.7973 18.2873Z" fill="#146AB0"/>
<path d="M76.3051 21.6305C76.0654 21.6378 75.6011 21.6076 75.1507 21.4727C73.9778 21.1231 73.2303 20.1756 73.1047 18.8615C73.0366 18.1457 73.0796 17.4388 73.3524 16.7576C74.0334 15.0573 76.3186 14.4273 77.7592 15.5467C78.3331 15.9927 78.5998 16.5993 78.6874 17.2888C78.7199 17.5449 78.7059 17.8064 78.7234 18.0649C78.7349 18.2343 78.6689 18.3035 78.4918 18.3264C77.3779 18.47 76.2656 18.6234 75.1527 18.7743C74.9466 18.8021 74.7419 18.8459 74.5348 18.8581C74.3876 18.8668 74.3801 18.9301 74.3936 19.0436C74.4947 19.8961 75.1242 20.4999 76.0024 20.5739C76.7014 20.6328 77.3844 20.5715 78.0269 20.2759C78.1555 20.217 78.1995 20.2477 78.2416 20.3616C78.3206 20.5744 78.3997 20.7881 78.4963 20.9936C78.5633 21.1368 78.5338 21.1996 78.3832 21.2629C77.7912 21.5107 77.1688 21.594 76.3046 21.6305H76.3051ZM74.4427 18.0075C74.6258 17.9836 74.7744 17.9651 74.923 17.9456C75.6981 17.8414 76.4737 17.7392 77.2478 17.6296C77.3204 17.6194 77.4295 17.6559 77.449 17.5094C77.53 16.909 77.1102 16.2132 76.5428 16.0336C75.7462 15.7809 74.9541 16.0866 74.5663 16.8004C74.3921 17.1208 74.3201 17.468 74.2936 17.8268C74.2836 17.9622 74.2966 18.061 74.4422 18.0079L74.4427 18.0075Z" fill="#146AB0"/>
<path d="M67.6688 21.6214C67.2004 21.6399 66.7351 21.6107 66.2852 21.4759C65.331 21.1896 64.695 20.5712 64.4028 19.6524C64.0916 18.6738 64.1101 17.6853 64.4984 16.7247C65.2204 14.9383 67.7534 14.3963 69.0989 15.7353C69.6153 16.2495 69.8144 16.8922 69.8414 17.5914C69.8685 18.3003 69.86 18.292 69.1419 18.386C67.9875 18.5374 66.8357 18.7049 65.6808 18.8549C65.5212 18.8758 65.5016 18.9153 65.5277 19.0633C65.6908 19.9898 66.2657 20.5137 67.2265 20.5805C67.8915 20.6267 68.541 20.5576 69.1519 20.2786C69.271 20.224 69.324 20.2299 69.3691 20.3589C69.4466 20.5805 69.5337 20.8 69.6338 21.0128C69.7003 21.1545 69.6463 21.2051 69.5182 21.2597C68.9278 21.5099 68.3053 21.5947 67.6693 21.6214H67.6688ZM65.4286 17.791C65.3685 17.9901 65.4736 18.0286 65.6923 17.997C66.4979 17.8791 67.3055 17.7764 68.1121 17.6644C68.6265 17.5928 68.6305 17.5894 68.5324 17.0918C68.4439 16.6429 68.2457 16.2631 67.7844 16.0723C67.0233 15.7567 66.1651 16.0289 65.7428 16.7189C65.5472 17.0383 65.4586 17.3883 65.4291 17.7915L65.4286 17.791Z" fill="#146AB0"/>
<path d="M61.7006 17.8002C61.7006 18.9508 61.6946 20.1018 61.7061 21.2523C61.7081 21.4598 61.6471 21.5128 61.4429 21.5007C61.1442 21.4831 60.843 21.4875 60.5432 21.4997C60.3816 21.506 60.3321 21.4612 60.3341 21.2996C60.3431 20.5541 60.3381 19.8087 60.3381 19.0632C60.3381 17.4833 60.3346 15.9028 60.3426 14.3228C60.3436 14.1319 60.2921 14.0754 60.0944 14.0803C59.5695 14.0935 59.0441 14.0769 58.5197 14.0891C58.3331 14.0935 58.2955 14.0233 58.3035 13.8632C58.315 13.6368 58.3196 13.4084 58.3025 13.183C58.2885 12.996 58.3571 12.9531 58.5412 12.9541C59.6746 12.9619 60.8079 12.958 61.9413 12.958C62.4582 12.958 62.9746 12.9634 63.4915 12.9551C63.6561 12.9527 63.7357 12.9848 63.7242 13.1664C63.7087 13.4084 63.7122 13.6528 63.7232 13.8953C63.7302 14.0472 63.6721 14.0896 63.522 14.0876C62.9886 14.0803 62.4552 14.091 61.9223 14.0813C61.7482 14.0779 61.6966 14.1295 61.6976 14.2994C61.7046 15.466 61.7011 16.6331 61.7011 17.8002H61.7006Z" fill="#146AB0"/>
<path d="M79.3938 18.3808C79.3868 17.5921 79.5129 16.8973 79.9102 16.2706C80.6943 15.0344 82.5172 14.6093 83.7886 15.3587C83.8892 15.4181 83.9387 15.4648 83.8762 15.5841C83.7631 15.8003 83.6615 16.0223 83.563 16.2448C83.5209 16.3398 83.4859 16.3622 83.3798 16.3091C82.25 15.7414 81.0926 16.1986 80.8314 17.5741C80.7133 18.1978 80.7213 18.8171 80.9455 19.4189C81.3263 20.4419 82.3395 20.828 83.3323 20.327C83.4749 20.2549 83.5289 20.271 83.584 20.4088C83.6655 20.6118 83.7501 20.8158 83.8567 21.0072C83.9457 21.1664 83.8862 21.2341 83.7426 21.3022C82.27 22.0058 80.0533 21.6854 79.4989 19.3542C79.4178 19.0138 79.3833 18.6671 79.3933 18.3813L79.3938 18.3808Z" fill="#146AB0"/>
<path d="M72.1336 16.8851C72.1336 18.3428 72.1301 19.8006 72.1381 21.2584C72.1391 21.4473 72.0921 21.5116 71.8919 21.5004C71.5932 21.4833 71.292 21.4858 70.9927 21.4999C70.8201 21.5082 70.7891 21.4449 70.7906 21.2935C70.7981 20.5972 70.7936 19.9004 70.7936 19.2042C70.7936 16.9688 70.7961 14.7335 70.7891 12.4981C70.7886 12.3024 70.8271 12.2269 71.0438 12.2415C71.334 12.261 71.6272 12.2566 71.9179 12.2425C72.0986 12.2337 72.1381 12.298 72.1376 12.463C72.1316 13.9369 72.1341 15.4112 72.1341 16.8851H72.1336Z" fill="#146AB0"/>
<path d="M54.4457 25.1631C54.4457 26.2201 53.5565 27.0834 52.4782 27.0747C51.4034 27.0659 50.5337 26.2119 50.5332 25.1655C50.5327 24.108 51.4179 23.2486 52.5012 23.2554C53.5765 23.2622 54.4462 24.1153 54.4462 25.1631H54.4457ZM52.4927 23.6303C51.6481 23.6289 51.0016 24.2964 51.0046 25.167C51.0076 26.0259 51.65 26.6944 52.4762 26.6992C53.3198 26.7041 53.9713 26.041 53.9778 25.1714C53.9843 24.3037 53.3368 23.6318 52.4932 23.6303H52.4927Z" fill="#146AB0"/>
<path d="M27.0503 10.459C28.3673 10.459 29.6838 10.4526 31.0008 10.4609C31.9475 10.4668 32.6771 11.0476 32.8602 11.9216C32.9123 12.1699 32.9173 12.4256 32.8612 12.6705C32.6791 13.4675 32.4944 14.2651 32.2863 15.0558C32.1372 15.623 31.8254 16.1119 31.4006 16.5272C30.8877 17.0287 30.2477 17.2152 29.5377 17.2152C27.7043 17.2152 25.8709 17.2176 24.037 17.2093C23.8359 17.2084 23.7518 17.2517 23.7088 17.4581C23.5837 18.0604 23.4355 18.6584 23.2799 19.2538C22.9612 20.4691 21.8038 21.4191 20.5228 21.5301C20.2066 21.5574 20.2046 21.5559 20.2741 21.2628C21.1078 17.7396 21.9439 14.2169 22.769 10.6922C22.8176 10.4853 22.9031 10.4468 23.1003 10.4478C24.4168 10.456 25.7338 10.4522 27.0508 10.4522V10.458L27.0503 10.459ZM27.5512 12.9066V12.8998C26.7025 12.8998 25.8534 12.9032 25.0047 12.8969C24.8566 12.8959 24.7836 12.931 24.7505 13.0829C24.642 13.5805 24.5199 14.0757 24.3968 14.5703C24.3598 14.7179 24.3938 14.771 24.5594 14.7705C26.2572 14.7671 27.955 14.7685 29.6528 14.7748C29.7884 14.7748 29.8444 14.7301 29.8724 14.6078C29.987 14.1112 30.1031 13.6151 30.2287 13.1208C30.2712 12.9534 30.2372 12.9008 30.0486 12.9027C29.2164 12.9125 28.3843 12.9071 27.5522 12.9071L27.5512 12.9066Z" fill="#FEFEFE"/>
<path d="M43.3249 10.4611C44.6829 10.4611 46.041 10.4606 47.3995 10.4611C48.0795 10.4616 48.6584 10.6758 49.0623 11.2353C49.411 11.7183 49.445 12.2563 49.339 12.8167C49.3104 12.9681 49.1934 12.9238 49.1038 12.9238C48.0875 12.9263 47.0707 12.9253 46.0545 12.9253C45.8043 12.9253 45.5541 12.9355 45.3049 12.9219C45.1403 12.9126 45.0752 12.9672 45.0387 13.1239C44.6584 14.7478 44.2706 16.3701 43.8843 17.9929C43.7847 18.4102 43.6907 18.8294 43.5821 19.2443C43.2603 20.4708 42.0955 21.429 40.8095 21.5312C40.5057 21.5556 40.5052 21.5541 40.5708 21.2766C41.2073 18.5899 41.8433 15.9032 42.4792 13.2165C42.5483 12.9258 42.5473 12.9302 42.2351 12.9243C41.6441 12.9131 41.0527 12.9511 40.4617 12.899C39.4935 12.8133 38.5793 11.9534 38.8645 10.5935C38.898 10.4343 38.9971 10.4606 39.1007 10.4606C40.5088 10.4606 41.9168 10.4606 43.3249 10.4606V10.4611Z" fill="#FCFDFD"/>
<path d="M17.0139 10.456C16.7742 11.7706 15.4417 12.9343 13.9496 12.9109C12.1582 12.8832 10.3658 12.9163 8.57447 12.9124C8.37182 12.9124 8.28175 12.9606 8.24172 13.1597C8.14865 13.6199 8.04657 14.0795 7.91697 14.5309C7.85042 14.7636 7.93399 14.7777 8.13364 14.7772C9.68382 14.7719 11.234 14.7758 12.7842 14.7767C13.276 14.7767 13.7679 14.787 14.2593 14.7724C14.4845 14.7655 14.4955 14.8318 14.4414 15.0207C14.0872 16.2569 12.8352 17.2151 11.5027 17.2288C10.1777 17.2419 8.85218 17.2356 7.52718 17.2278C7.33503 17.2268 7.25797 17.276 7.21694 17.4688C7.08534 18.0862 6.93923 18.7016 6.77411 19.3112C6.45136 20.5051 5.22993 21.4638 3.97348 21.5359C3.78483 21.5466 3.71628 21.5334 3.76932 21.3114C4.45534 18.4523 5.12435 15.5894 5.80837 12.7298C6.10159 11.5043 7.39157 10.4818 8.69957 10.4682C10.8412 10.4463 12.9833 10.4579 15.125 10.456C15.7494 10.4555 16.3739 10.456 17.0139 10.456Z" fill="#FEFEFE"/>
<path d="M27.5508 12.9067C28.383 12.9067 29.2156 12.9121 30.0472 12.9023C30.2364 12.8999 30.2699 12.9525 30.2274 13.1205C30.1018 13.6147 29.9857 14.1108 29.8711 14.6075C29.8431 14.7297 29.787 14.775 29.6514 14.7745C27.9537 14.7686 26.2559 14.7672 24.5581 14.7701C24.3919 14.7701 24.3584 14.7175 24.3954 14.57C24.519 14.0753 24.6406 13.5801 24.7492 13.0825C24.7822 12.9306 24.8548 12.8955 25.0034 12.8965C25.8521 12.9028 26.7012 12.8994 27.5498 12.8994V12.9062L27.5508 12.9067Z" fill="#F17227"/>
<path d="M52.8149 25.3089C53.0065 25.6157 53.1816 25.8971 53.3593 26.1819C53.041 26.2803 52.99 26.2637 52.8439 26.0271C52.7283 25.8401 52.6092 25.6551 52.4991 25.4647C52.4376 25.3586 52.373 25.2714 52.2304 25.3026C52.0733 25.3377 52.1549 25.4618 52.1479 25.5436C52.1338 25.7043 52.1348 25.8674 52.1463 26.0286C52.1574 26.1819 52.1113 26.2394 51.9417 26.2379C51.7801 26.2365 51.729 26.1946 51.7315 26.0339C51.741 25.4433 51.7395 24.8527 51.732 24.2621C51.73 24.1189 51.7606 24.0581 51.9222 24.0698C52.2364 24.0927 52.5547 24.0396 52.8674 24.1053C53.2102 24.1774 53.3638 24.3483 53.3813 24.6662C53.3988 24.9803 53.2627 25.1609 52.9264 25.2705C52.8954 25.2807 52.8644 25.2909 52.8134 25.308L52.8149 25.3089ZM52.4291 24.9988C52.8264 24.9958 52.9625 24.916 52.9665 24.692C52.9705 24.4734 52.8214 24.3828 52.4486 24.3765C52.3905 24.3755 52.332 24.3721 52.2739 24.378C52.2354 24.3819 52.1659 24.3979 52.1654 24.4121C52.1544 24.5883 52.1223 24.7719 52.1599 24.9399C52.1874 25.0616 52.349 24.9696 52.4291 24.9983V24.9988Z" fill="#146AB0"/>
<path d="M52.4295 24.9986C52.3494 24.9699 52.1878 25.0624 52.1603 24.9402C52.1228 24.7722 52.1548 24.5887 52.1658 24.4124C52.1668 24.3983 52.2359 24.3822 52.2744 24.3783C52.3319 24.3725 52.3905 24.3759 52.449 24.3769C52.8218 24.3827 52.9709 24.4738 52.9669 24.6924C52.9629 24.9164 52.8268 24.9962 52.4295 24.9991V24.9986Z" fill="#FCFDFD"/>
</g>
<defs>
<clipPath id="clip0_153_258">
<rect width="100" height="32" fill="white"/>
</clipPath>
</defs>
</svg>
